<?xml version="1.0" standalone="no"?>
<!DOCTYPE svg PUBLIC "-//W3C//DTD SVG 20010904//EN"
 "http://www.w3.org/TR/2001/REC-SVG-20010904/DTD/svg10.dtd">
<svg version="1.0" xmlns="http://www.w3.org/2000/svg"
 width="1147.000000pt" height="202.000000pt" viewBox="0 0 1147.000000 202.000000"
 preserveAspectRatio="xMidYMid meet">
<metadata>
Created by potrace 1.16, written by Peter Selinger 2001-2019
</metadata>
<g transform="translate(0.000000,202.000000) scale(0.100000,-0.100000)"
fill="#000000" stroke="none">
<path d="M3375 1524 c-137 -33 -230 -128 -242 -248 -11 -103 36 -190 137 -256
33 -21 119 -59 190 -85 98 -36 142 -58 175 -87 98 -86 80 -208 -39 -270 -58
-31 -174 -31 -232 0 -53 27 -110 93 -121 140 l-9 37 -68 3 -69 3 7 -42 c35
-219 328 -342 559 -236 113 52 167 132 167 247 0 155 -90 241 -343 329 -161
55 -217 104 -217 191 0 87 55 148 154 170 114 25 220 -33 256 -140 l19 -55 67
-3 67 -3 -7 43 c-21 133 -127 235 -274 267 -67 14 -102 13 -177 -5z"/>
<path d="M4271 1525 c-126 -36 -207 -126 -258 -290 -15 -50 -18 -93 -18 -250
1 -181 2 -194 28 -268 34 -97 62 -142 122 -195 61 -53 130 -77 225 -76 99 0
169 26 235 86 54 49 101 135 112 203 l6 35 -66 0 -65 0 -7 -37 c-21 -115 -103
-183 -217 -183 -169 1 -248 140 -248 440 0 153 14 232 53 310 44 89 94 123
185 128 56 3 75 0 112 -20 51 -28 107 -108 117 -170 l6 -38 63 0 c60 0 64 1
64 23 0 38 -36 133 -69 180 -73 107 -241 161 -380 122z"/>
<path d="M4920 985 l0 -535 60 0 60 0 0 250 0 250 220 0 220 0 0 -250 0 -250
60 0 60 0 0 535 0 535 -60 0 -60 0 0 -230 0 -230 -220 0 -220 0 0 230 0 230
-60 0 -60 0 0 -535z"/>
<path d="M5850 985 l0 -535 325 0 325 0 0 55 0 55 -260 0 -260 0 0 195 0 195
220 0 220 0 0 55 0 55 -220 0 -220 0 0 175 0 175 255 0 255 0 0 55 0 55 -320
0 -320 0 0 -535z"/>
<path d="M6730 985 l0 -535 133 0 c171 0 246 13 334 55 163 80 243 237 243
480 0 247 -84 407 -253 485 -80 37 -161 50 -324 50 l-133 0 0 -535z m388 396
c73 -33 134 -103 164 -189 20 -58 23 -86 23 -207 0 -169 -21 -244 -87 -320
-66 -75 -123 -98 -250 -103 l-108 -4 0 427 0 427 103 -4 c78 -3 114 -10 155
-27z"/>
<path d="M7616 1168 c-7 -380 -2 -446 37 -532 118 -256 493 -256 614 1 41 88
45 150 38 531 l-7 352 -59 0 -58 0 -3 -393 -3 -393 -30 -59 c-49 -95 -134
-138 -229 -116 -68 16 -109 50 -143 118 l-28 58 -3 393 -3 392 -58 0 -58 0 -7
-352z"/>
<path d="M8560 985 l0 -535 325 0 325 0 0 55 0 55 -260 0 -260 0 0 480 0 480
-65 0 -65 0 0 -535z"/>
<path d="M9450 985 l0 -535 325 0 325 0 0 55 0 55 -260 0 -260 0 0 195 0 195
220 0 220 0 0 55 0 55 -220 0 -220 0 0 175 0 175 255 0 255 0 0 55 0 55 -320
0 -320 0 0 -535z"/>
<path d="M10350 990 l0 -530 60 0 60 0 0 215 0 215 113 0 112 -1 101 -212 101
-212 72 -3 c39 -2 71 0 71 3 0 3 -49 104 -110 225 -60 121 -110 223 -110 227
0 5 21 19 46 32 100 54 149 149 142 279 -4 89 -25 139 -78 192 -78 78 -166
100 -405 100 l-175 0 0 -530z m393 409 c47 -13 106 -63 123 -106 21 -48 18
-137 -6 -182 -43 -86 -111 -113 -270 -109 l-115 3 -3 203 -2 202 117 0 c65 0
135 -5 156 -11z"/>
<path d="M1275 1428 c-61 -20 -75 -31 -75 -58 0 -15 2 -29 5 -32 3 -3 31 3 62
13 68 23 124 24 162 4 34 -17 41 -33 41 -89 l0 -43 -98 1 c-89 1 -102 -1 -135
-24 -91 -62 -89 -201 4 -252 52 -29 138 -19 197 22 24 17 45 30 46 28 1 -2 10
-15 19 -30 20 -33 33 -34 67 -9 22 18 23 21 11 48 -9 18 -16 85 -20 185 -7
175 -14 196 -82 230 -38 19 -155 23 -204 6z m194 -274 c16 -5 7 -67 -16 -102
-31 -49 -122 -67 -164 -33 -29 23 -33 91 -7 117 28 28 125 37 187 18z"/>
<path d="M2415 1426 c-50 -22 -77 -60 -82 -113 -7 -83 35 -127 157 -163 74
-22 100 -44 100 -82 0 -58 -83 -81 -189 -54 -83 21 -83 21 -79 -16 3 -30 8
-35 53 -50 104 -35 217 -16 275 46 21 23 25 38 25 88 0 54 -3 62 -31 88 -17
15 -68 40 -113 55 -45 15 -88 33 -96 42 -23 22 -19 69 7 87 29 20 112 21 167
1 l42 -15 -3 37 c-3 31 -8 38 -38 49 -46 17 -157 17 -195 0z"/>
<path d="M1620 1416 c0 -8 18 -74 41 -148 22 -73 52 -171 66 -218 14 -47 30
-91 36 -98 6 -8 26 -12 51 -10 l41 3 16 65 c9 36 29 119 44 184 17 71 31 113
35 105 4 -8 24 -84 45 -169 20 -85 41 -162 46 -172 10 -19 83 -26 94 -9 8 13
145 457 145 470 0 6 -18 11 -41 11 -49 0 -50 -2 -105 -222 -21 -87 -41 -158
-44 -158 -4 0 -23 75 -45 168 -51 225 -46 214 -96 210 -25 -2 -45 -9 -50 -18
-4 -8 -24 -87 -45 -175 -20 -88 -40 -166 -43 -173 -4 -7 -27 65 -50 160 -24
95 -48 181 -53 191 -11 22 -88 25 -88 3z"/>
</g>
</svg>
