<?xml version="1.0" standalone="no"?>
<!DOCTYPE svg PUBLIC "-//W3C//DTD SVG 20010904//EN"
 "http://www.w3.org/TR/2001/REC-SVG-20010904/DTD/svg10.dtd">
<svg version="1.0" xmlns="http://www.w3.org/2000/svg"
 width="300.000000pt" height="53.000000pt" viewBox="0 0 300.000000 53.000000"
 preserveAspectRatio="xMidYMid meet">
<metadata>
Created by potrace 1.10, written by Peter Selinger 2001-2011
</metadata>
<g transform="translate(0.000000,53.000000) scale(0.100000,-0.100000)"
fill="#444444" stroke="none">
<path d="M846 379 c-29 -22 -35 -64 -13 -92 6 -9 38 -28 70 -42 63 -27 74 -42
57 -75 -16 -30 -90 -25 -105 8 -11 24 -45 31 -45 8 0 -7 12 -25 26 -40 54 -53
164 -25 164 42 0 42 -25 69 -80 87 -52 17 -74 42 -64 69 13 35 83 34 99 -2 11
-25 45 -30 45 -7 0 9 -11 27 -25 40 -31 32 -91 34 -129 4z"/>
<path d="M1082 377 c-53 -56 -54 -185 -1 -238 28 -28 99 -26 126 4 32 34 37
63 13 63 -11 0 -20 -6 -20 -13 0 -18 -37 -53 -55 -53 -9 0 -27 11 -40 25 -22
21 -25 33 -25 90 0 71 9 99 40 115 27 15 68 -4 76 -35 4 -16 13 -25 26 -25 15
0 18 5 13 23 -21 67 -108 92 -153 44z"/>
<path d="M1285 260 c0 -127 2 -140 18 -140 14 0 17 10 17 65 l0 65 55 0 55 0
0 -65 c0 -58 2 -65 20 -65 19 0 20 7 20 140 0 133 -1 140 -20 140 -18 0 -20
-7 -20 -60 l0 -60 -55 0 -55 0 0 60 c0 50 -3 60 -17 60 -16 0 -18 -13 -18
-140z"/>
<path d="M1530 260 l0 -140 85 0 c69 0 85 3 85 15 0 12 -14 15 -70 15 l-70 0
0 50 0 50 60 0 c47 0 60 3 60 15 0 12 -13 15 -60 15 l-60 0 0 45 0 45 70 0
c56 0 70 3 70 15 0 12 -16 15 -85 15 l-85 0 0 -140z"/>
<path d="M1760 260 l0 -140 54 0 c65 0 108 29 126 86 13 37 7 102 -11 136 -18
33 -70 58 -121 58 l-48 0 0 -140z m104 99 c34 -16 50 -59 44 -121 -6 -61 -32
-88 -84 -88 l-34 0 0 110 0 110 25 0 c13 0 35 -5 49 -11z"/>
<path d="M1990 294 c0 -139 18 -173 93 -174 27 0 45 7 62 25 24 23 25 30 25
140 0 96 -3 115 -15 115 -12 0 -15 -18 -15 -105 0 -98 -2 -108 -24 -130 -24
-24 -55 -25 -75 -1 -5 6 -11 62 -13 124 -3 99 -5 112 -20 112 -16 0 -18 -12
-18 -106z"/>
<path d="M2240 260 l0 -140 85 0 c69 0 85 3 85 15 0 12 -14 15 -70 15 l-70 0
0 125 c0 104 -2 125 -15 125 -13 0 -15 -22 -15 -140z"/>
<path d="M2470 260 l0 -140 85 0 c69 0 85 3 85 15 0 12 -14 15 -67 15 l-68 0
-1 50 0 50 58 0 c45 0 58 3 58 15 0 12 -13 15 -58 15 l-58 0 0 45 -1 45 68 0
c55 0 69 3 69 15 0 12 -16 15 -85 15 l-85 0 0 -140z"/>
<path d="M2705 260 c0 -127 2 -140 18 -140 14 0 17 9 17 58 l0 59 30 -5 c25
-3 34 -13 54 -58 18 -40 30 -54 46 -54 19 0 19 3 -10 61 l-31 60 26 20 c25 20
33 58 19 94 -10 26 -59 45 -116 45 l-53 0 0 -140z m129 88 c9 -12 16 -28 16
-35 0 -25 -39 -53 -75 -53 l-35 0 0 55 0 55 39 0 c30 0 44 -6 55 -22z"/>
<path d="M323 373 c-26 -10 -12 -22 18 -16 21 4 34 1 40 -8 15 -23 11 -28 -28
-31 -32 -3 -38 -7 -41 -29 -4 -33 20 -53 50 -43 13 4 30 7 38 6 12 -2 14 8 11
50 -1 29 -8 59 -13 66 -10 12 -51 15 -75 5z m63 -75 c4 -6 -1 -17 -11 -25 -24
-17 -34 -17 -42 3 -10 26 38 47 53 22z"/>
<path d="M420 378 c0 -2 9 -30 19 -63 24 -76 47 -85 56 -21 8 54 20 52 29 -4
9 -56 31 -51 52 13 9 28 19 58 22 65 2 6 -3 12 -12 12 -9 0 -16 -6 -16 -12 0
-7 -5 -31 -12 -53 l-12 -40 -11 50 c-7 32 -16 50 -25 50 -10 0 -19 -18 -26
-50 l-11 -50 -11 40 c-7 22 -12 46 -12 53 0 6 -7 12 -15 12 -8 0 -15 -1 -15
-2z"/>
<path d="M622 368 c-23 -23 -13 -48 23 -64 19 -8 35 -18 35 -23 0 -14 -29 -22
-58 -15 -26 5 -26 5 -8 -10 24 -19 46 -20 70 -3 26 19 16 50 -22 66 -40 18
-36 37 7 35 33 -2 42 10 15 20 -25 9 -49 7 -62 -6z"/>
<path d="M655 210 c-17 -7 -15 -9 13 -9 34 -1 39 -10 22 -42 -8 -13 -7 -19 0
-19 15 0 34 46 27 64 -7 17 -31 20 -62 6z"/>
<path d="M300 191 c58 -48 111 -66 200 -66 67 0 95 5 134 23 27 12 47 25 44
27 -3 3 -31 -1 -64 -10 -104 -27 -163 -20 -319 39 -16 6 -15 4 5 -13z"/>
<path d="M648 113 c7 -3 16 -2 19 1 4 3 -2 6 -13 5 -11 0 -14 -3 -6 -6z"/>
</g>
</svg>
